<svg width="16" height="16" viewBox="0 0 16 16" fill="none" xmlns="http://www.w3.org/2000/svg">
<path d="M2.99935 11.0267C2.99934 11.4706 2.99933 11.8437 3.02427 12.1489C3.05035 12.4681 3.10697 12.7714 3.25367 13.0593C3.47737 13.4983 3.83433 13.8553 4.27337 14.079C4.56128 14.2257 4.86458 14.2823 5.18373 14.3084C5.48897 14.3333 5.86199 14.3333 6.30589 14.3333H11.3595C11.8034 14.3333 12.1764 14.3333 12.4816 14.3084C12.8008 14.2823 13.1041 14.2257 13.392 14.079C13.831 13.8553 14.188 13.4983 14.4117 13.0593C14.5584 12.7714 14.615 12.4681 14.6411 12.1489C14.666 11.8437 14.666 11.4707 14.666 11.0268V4.97317C14.666 4.52927 14.666 4.15625 14.6411 3.85101C14.615 3.53186 14.5584 3.22855 14.4117 2.94065C14.188 2.5016 13.831 2.14465 13.392 1.92094C13.1041 1.77425 12.8008 1.71762 12.4816 1.69155C12.1764 1.66661 11.8034 1.66662 11.3594 1.66663H6.30596C5.86203 1.66662 5.48899 1.66661 5.18373 1.69155C4.86458 1.71762 4.56128 1.77425 4.27337 1.92094C3.83433 2.14465 3.47737 2.5016 3.25367 2.94065C3.10697 3.22855 3.05035 3.53186 3.02427 3.85101C2.99933 4.15626 2.99934 4.52927 2.99935 4.97319C2.99935 5.08002 3.08595 5.16663 3.19279 5.16663H4.16602C4.25806 5.16663 4.33268 5.09201 4.33268 4.99996C4.33268 4.52225 4.3332 4.20406 4.35318 3.95958C4.37251 3.72289 4.40672 3.61458 4.44168 3.54597C4.53755 3.35781 4.69053 3.20483 4.87869 3.10895C4.94731 3.07399 5.05561 3.03979 5.29231 3.02045C5.53678 3.00048 5.85497 2.99996 6.33268 2.99996H11.3327C11.8104 2.99996 12.1286 3.00048 12.3731 3.02045C12.6098 3.03979 12.7181 3.07399 12.7867 3.10895C12.9748 3.20483 13.1278 3.35781 13.2237 3.54597C13.2587 3.61458 13.2929 3.72289 13.3122 3.95958C13.3322 4.20406 13.3327 4.52225 13.3327 4.99996V11C13.3327 11.4777 13.3322 11.7959 13.3122 12.0403C13.2929 12.277 13.2587 12.3853 13.2237 12.454C13.1278 12.6421 12.9748 12.7951 12.7867 12.891C12.7181 12.9259 12.6098 12.9601 12.3731 12.9795C12.1286 12.9994 11.8104 13 11.3327 13H6.33268C5.85497 13 5.53678 12.9994 5.29231 12.9795C5.05561 12.9601 4.94731 12.9259 4.87869 12.891C4.69053 12.7951 4.53755 12.6421 4.44168 12.454C4.40671 12.3853 4.37251 12.277 4.35318 12.0403C4.3332 11.7959 4.33268 11.4777 4.33268 11C4.33268 10.9079 4.25806 10.8333 4.16602 10.8333H3.19279C3.08595 10.8333 2.99935 10.9199 2.99935 11.0267Z" fill="black"/>
<path d="M7.56838 4.43092C7.69856 4.30075 7.90961 4.30075 8.03979 4.43092L11.1374 7.52856C11.3978 7.78891 11.3978 8.21102 11.1374 8.47136L8.03979 11.569C7.90961 11.6992 7.69856 11.6992 7.56839 11.569L7.09698 11.0976C6.96681 10.9674 6.9668 10.7564 7.09698 10.6262L9.05654 8.66663L0.999349 8.66663C0.815254 8.66663 0.666016 8.51739 0.666016 8.33329V7.66663C0.666016 7.48253 0.815254 7.33329 0.999349 7.33329H9.05654L7.09698 5.37373C6.96681 5.24356 6.96681 5.0325 7.09698 4.90233L7.56838 4.43092Z" fill="black"/>
</svg>
