<svg width="16" height="16" viewBox="0 0 16 16" fill="none" xmlns="http://www.w3.org/2000/svg">
<path d="M7.99935 0.666626C3.94926 0.666626 0.666016 3.94987 0.666016 7.99996C0.666016 12.05 3.94926 15.3333 7.99935 15.3333C12.0494 15.3333 15.3327 12.05 15.3327 7.99996C15.3327 3.94987 12.0494 0.666626 7.99935 0.666626ZM1.99935 7.99996C1.99935 4.68625 4.68564 1.99996 7.99935 1.99996C11.3131 1.99996 13.9993 4.68625 13.9993 7.99996C13.9993 11.3137 11.3131 14 7.99935 14C4.68564 14 1.99935 11.3137 1.99935 7.99996Z" fill="black"/>
<path fill-rule="evenodd" clip-rule="evenodd" d="M7.99935 4.33329C8.49935 4.33329 8.40268 6.06663 9.16602 6.83329C9.93268 7.59663 11.666 7.49996 11.666 7.99996C11.666 8.49996 9.93268 8.40329 9.16602 9.16663C8.40268 9.93329 8.49935 11.6666 7.99935 11.6666C7.49935 11.6666 7.59602 9.93329 6.83268 9.16663C6.06602 8.40329 4.33268 8.49996 4.33268 7.99996C4.33268 7.49996 6.06602 7.59663 6.83268 6.83329C7.59602 6.06663 7.49935 4.33329 7.99935 4.33329Z" fill="black"/>
</svg>
