<svg width="15" height="15" viewBox="0 0 15 15" fill="none" xmlns="http://www.w3.org/2000/svg">
<path d="M3.58563 0C3.7615 0 3.83587 0.294858 3.92858 0.662443C4.02757 1.0549 4.14746 1.53027 4.43412 1.81818C4.72203 2.10484 5.1974 2.22474 5.58986 2.32372C5.95744 2.41643 6.2523 2.4908 6.2523 2.66667C6.2523 2.84253 5.95744 2.9169 5.58986 3.00961C5.1974 3.1086 4.72203 3.22849 4.43412 3.51515C4.14746 3.80306 4.02757 4.27843 3.92858 4.67089C3.83587 5.03847 3.7615 5.33333 3.58563 5.33333C3.40977 5.33333 3.3354 5.03847 3.24269 4.67089C3.14371 4.27843 3.02381 3.80306 2.73715 3.51515C2.44924 3.22849 1.97387 3.1086 1.58141 3.00961C1.21383 2.9169 0.918969 2.84253 0.918969 2.66667C0.918969 2.4908 1.21383 2.41643 1.58141 2.32372C1.97387 2.22474 2.44924 2.10484 2.73715 1.81818C3.02381 1.53027 3.14371 1.0549 3.24269 0.662442C3.3354 0.294858 3.40977 0 3.58563 0Z" fill="black"/>
<path fill-rule="evenodd" clip-rule="evenodd" d="M12.5468 2.22676C11.5054 1.18537 9.81694 1.18537 8.77554 2.22676L0.781049 10.2213C-0.26035 11.2627 -0.26035 12.9511 0.781049 13.9925C1.82245 15.0339 3.51089 15.0339 4.55229 13.9925L12.5468 5.998C13.5882 4.9566 13.5882 3.26816 12.5468 2.22676ZM9.71835 3.16957C10.239 2.64887 11.0833 2.64887 11.604 3.16957C12.1247 3.69027 12.1247 4.53449 11.604 5.05519L10.2604 6.39874L8.3748 4.51312L9.71835 3.16957ZM7.43199 5.45593L1.72386 11.1641C1.20316 11.6848 1.20316 12.529 1.72386 13.0497C2.24456 13.5704 3.08878 13.5704 3.60948 13.0497L9.31761 7.34155L7.43199 5.45593Z" fill="black"/>
<path d="M12.8473 9.14844C12.7748 8.87974 12.7173 8.66667 12.5856 8.66667C12.454 8.66667 12.3965 8.87974 12.324 9.14844C12.2462 9.43643 12.1512 9.78833 11.9293 10.0103C11.7073 10.2323 11.3554 10.3273 11.0674 10.405C10.7987 10.4775 10.5856 10.535 10.5856 10.6667C10.5856 10.7983 10.7987 10.8558 11.0674 10.9283C11.3554 11.0061 11.7073 11.1011 11.9293 11.323C12.1512 11.545 12.2462 11.8969 12.324 12.1849C12.3965 12.4536 12.454 12.6667 12.5856 12.6667C12.7173 12.6667 12.7748 12.4536 12.8473 12.1849C12.925 11.8969 13.02 11.545 13.242 11.323C13.464 11.1011 13.8159 11.0061 14.1039 10.9283C14.3726 10.8558 14.5856 10.7983 14.5856 10.6667C14.5856 10.535 14.3726 10.4775 14.1039 10.405C13.8159 10.3273 13.464 10.2323 13.242 10.0103C13.02 9.78833 12.925 9.43643 12.8473 9.14844Z" fill="black"/>
</svg>
