<svg width="16" height="16" viewBox="0 0 16 16" fill="none" xmlns="http://www.w3.org/2000/svg">
<path fill-rule="evenodd" clip-rule="evenodd" d="M3.65178 2.26267C3.53444 2.13333 3.56925 1.9166 3.73043 1.84938L4.4108 1.56564C4.53715 1.51295 4.68414 1.54184 4.76807 1.64999C5.14622 2.13731 5.48417 2.93421 5.69585 3.49963H9.57641L9.21278 4.83296H8.07554C7.77337 6.53204 6.77187 8.20597 5.77586 9.21309C6.31244 9.66698 6.94467 10.1426 7.64078 10.5969L7.29115 11.8789C6.38396 11.2682 5.60432 10.6478 4.9173 10.0295C3.93242 10.9158 2.75719 11.8067 1.2887 12.6668C1.13013 12.7597 0.92686 12.7038 0.835686 12.5443L0.509047 11.9726C0.414015 11.8063 0.47853 11.5946 0.648178 11.5056C1.95746 10.8193 3.14637 9.98486 4.05875 9.21309C3.06274 8.20596 2.06125 6.53203 1.75909 4.83296H0.667318C0.483223 4.83296 0.333984 4.68372 0.333984 4.49963V3.83296C0.333984 3.64886 0.483223 3.49963 0.667317 3.49963H4.43457C4.26244 3.12251 4.00283 2.6496 3.65178 2.26267ZM4.88108 8.38929C3.88674 7.37929 3.19963 6.04978 2.94425 4.83296H6.89038C6.63499 6.04977 5.94789 7.37927 4.95356 8.38926C4.94158 8.40143 4.92949 8.41365 4.9173 8.4259C4.90513 8.41366 4.89305 8.40145 4.88108 8.38929Z" fill="black"/>
<path fill-rule="evenodd" clip-rule="evenodd" d="M13.0676 3.41193C13.0281 3.26691 12.8964 3.16631 12.7461 3.16631H11.2552C11.1049 3.16631 10.9732 3.26691 10.9337 3.41193L8.06955 13.9137C8.03485 14.0409 8.13063 14.1663 8.2625 14.1663H9.07789C9.22891 14.1663 9.36106 14.0648 9.39997 13.9189L10.134 11.1663H13.8673L14.6013 13.9189C14.6402 14.0648 14.7724 14.1663 14.9234 14.1663H15.7388C15.8707 14.1663 15.9665 14.0409 15.9318 13.9137L13.0676 3.41193ZM12.0007 4.16631L13.5118 9.83297H10.4895L12.0007 4.16631Z" fill="black"/>
</svg>
