<svg width="16" height="16" viewBox="0 0 16 16" fill="none" xmlns="http://www.w3.org/2000/svg">
<g clip-path="url(#clip0_317_2771)">
<path d="M15.069 1.17875C15.1992 1.04857 15.1992 0.837516 15.069 0.707341L14.5976 0.235937C14.4674 0.105762 14.2564 0.105762 14.1262 0.235937L10.6007 3.76143C10.1142 4.24794 9.7413 4.83602 9.50868 5.48353L9.47679 5.57232C9.41961 5.73147 9.57348 5.88533 9.73262 5.82816L9.82138 5.79628C10.4689 5.56367 11.057 5.19074 11.5436 4.70421L15.069 1.17875Z" fill="black"/>
<path d="M14 4.16199V12.027C14 12.4709 14 12.844 13.9751 13.1492C13.949 13.4683 13.8924 13.7716 13.7457 14.0595C13.522 14.4986 13.165 14.8555 12.726 15.0793C12.4381 15.2259 12.1348 15.2826 11.8156 15.3086C11.5104 15.3336 11.1374 15.3336 10.6935 15.3336H5.30655C4.86266 15.3336 4.48961 15.3336 4.18438 15.3086C3.86524 15.2826 3.56193 15.2259 3.27402 15.0793C2.83498 14.8555 2.47802 14.4986 2.25432 14.0595C2.10762 13.7716 2.051 13.4683 2.02492 13.1492C1.99998 12.8439 1.99999 12.4709 2 12.027V3.97346C1.99999 3.52956 1.99998 3.15653 2.02492 2.85128C2.051 2.53214 2.10762 2.22883 2.25432 1.94092C2.47802 1.50188 2.83498 1.14492 3.27402 0.92122C3.56193 0.774525 3.86524 0.717898 4.18438 0.691823C4.48963 0.666884 4.86264 0.666892 5.30654 0.666901H10.6934C11.1363 0.666892 11.5086 0.666884 11.8135 0.69165L10.5049 2.00024H5.33333C4.85562 2.00024 4.53743 2.00075 4.29296 2.02073C4.05627 2.04007 3.94796 2.07427 3.87934 2.10923C3.69118 2.2051 3.5382 2.35808 3.44233 2.54624C3.40737 2.61486 3.37317 2.72317 3.35383 2.95986C3.33385 3.20434 3.33333 3.52252 3.33333 4.00024V12.0002C3.33333 12.4779 3.33385 12.7961 3.35383 13.0406C3.37317 13.2773 3.40737 13.3856 3.44233 13.4542C3.5382 13.6424 3.69118 13.7954 3.87934 13.8912C3.94796 13.9262 4.05627 13.9604 4.29296 13.9797C4.53743 13.9997 4.85562 14.0002 5.33333 14.0002H10.6667C11.1444 14.0002 11.4626 13.9997 11.707 13.9797C11.9437 13.9604 12.052 13.9262 12.1207 13.8912C12.3088 13.7954 12.4618 13.6424 12.5577 13.4542C12.5926 13.3856 12.6268 13.2773 12.6462 13.0406C12.6662 12.7961 12.6667 12.4779 12.6667 12.0002V5.49533L14 4.16199Z" fill="black"/>
<path d="M5.33333 9.00023C5.33333 9.18433 5.48257 9.33357 5.66667 9.33357H10.3333C10.5174 9.33357 10.6667 9.18433 10.6667 9.00023V8.33357C10.6667 8.14947 10.5174 8.00023 10.3333 8.00023H5.66667C5.48257 8.00023 5.33333 8.14947 5.33333 8.33357V9.00023Z" fill="black"/>
<path d="M5.33333 11.6669C5.33333 11.851 5.48257 12.0002 5.66667 12.0002H10.3333C10.5174 12.0002 10.6667 11.851 10.6667 11.6669V11.0002C10.6667 10.8161 10.5174 10.6669 10.3333 10.6669H5.66667C5.48257 10.6669 5.33333 10.8161 5.33333 11.0002V11.6669Z" fill="black"/>
</g>
<defs>
<clipPath id="clip0_317_2771">
<rect width="16" height="16" fill="white"/>
</clipPath>
</defs>
</svg>
