<svg width="14" height="14" viewBox="0 0 14 14" fill="none" xmlns="http://www.w3.org/2000/svg">
<path d="M5.54253 0.729126C7.15545 0.729126 8.4592 2.03579 8.4592 3.64579C8.4592 5.25579 7.15545 6.56246 5.54253 6.56246C3.93253 6.56246 2.62586 5.25579 2.62586 3.64579C2.62586 2.03579 3.93253 0.729126 5.54253 0.729126ZM5.54253 1.89579C4.57711 1.89579 3.79253 2.68038 3.79253 3.64579C3.79253 4.61121 4.57711 5.39579 5.54253 5.39579C6.51086 5.39579 7.29253 4.61121 7.29253 3.64579C7.29253 2.68038 6.51086 1.89579 5.54253 1.89579Z" fill="#737373"/>
<path d="M5.54253 7.43746C5.96532 7.43746 6.36541 7.47792 6.74109 7.5556C6.36432 7.79641 6.12696 8.20061 6.07122 8.63076C5.90114 8.61311 5.72488 8.60413 5.54253 8.60413C3.18586 8.60413 1.8442 10.1091 1.7567 12.3958C1.75086 12.5562 1.62253 12.6875 1.4592 12.6875H0.875865C0.715448 12.6875 0.584198 12.5562 0.590031 12.3958C0.686281 9.47621 2.5442 7.43746 5.54253 7.43746Z" fill="#737373"/>
<path d="M10.8036 6.56685C10.7082 6.27412 10.2945 6.27412 10.1991 6.56685L9.64227 8.27548C9.60091 8.40594 9.48 8.49503 9.34 8.49503H7.54546C7.23682 8.49503 7.10955 8.88958 7.35773 9.07094L8.81182 10.1241C8.92318 10.2068 8.96773 10.35 8.92636 10.4805L8.37273 12.1859C8.27727 12.4818 8.61137 12.7237 8.86273 12.5423L10.3136 11.4891C10.425 11.4064 10.5777 11.4064 10.6891 11.4891L12.14 12.5423C12.3882 12.7237 12.7255 12.4818 12.63 12.1859L12.0764 10.4805C12.0318 10.35 12.0795 10.2068 12.1909 10.1241L13.6418 9.07094C13.8932 8.88958 13.7627 8.49503 13.4541 8.49503H11.6595C11.5227 8.49503 11.4018 8.40594 11.3573 8.27548L10.8036 6.56685Z" fill="#737373"/>
</svg>
