<svg width="16" height="16" viewBox="0 0 16 16" fill="none" xmlns="http://www.w3.org/2000/svg">
<path fill-rule="evenodd" clip-rule="evenodd" d="M4.50065 1.83333C4.50065 2.61066 4.01688 3.275 3.33399 3.54169V4.16667H10.8006C11.226 4.16666 11.585 4.16665 11.8791 4.19068C12.1872 4.21585 12.4823 4.27066 12.763 4.41372C13.1895 4.63103 13.5363 4.97779 13.7536 5.40429C13.8967 5.68506 13.9515 5.98014 13.9766 6.28817C14.0007 6.5823 14.0007 6.94133 14.0007 7.3667L14.0006 12.4583C14.6835 12.725 15.1673 13.3893 15.1673 14.1667C15.1673 15.1792 14.3465 16 13.334 16C12.3215 16 11.5007 15.1792 11.5007 14.1667C11.5007 13.3893 11.9844 12.725 12.6673 12.4583V11.8333H5.20075C4.7754 11.8333 4.41627 11.8334 4.12215 11.8093C3.81412 11.7842 3.51905 11.7293 3.23827 11.5863C2.81177 11.369 2.46502 11.0222 2.2477 10.5957C2.10464 10.3149 2.04983 10.0199 2.02466 9.71183C2.00063 9.41769 2.00064 9.05865 2.00065 8.63325L2.00065 3.54169C1.31776 3.275 0.833984 2.61066 0.833984 1.83333C0.833984 0.820811 1.6548 0 2.66732 0C3.67984 0 4.50065 0.820811 4.50065 1.83333ZM2.66732 2.56667C3.07233 2.56667 3.40065 2.23834 3.40065 1.83333C3.40065 1.42832 3.07233 1.1 2.66732 1.1C2.26231 1.1 1.93398 1.42832 1.93398 1.83333C1.93398 2.23834 2.26231 2.56667 2.66732 2.56667ZM3.33399 5.5V8.60667C3.33399 8.89904 3.3345 9.3699 3.35357 9.60326C3.372 9.82883 3.40438 9.92891 3.43571 9.99039C3.52519 10.166 3.66798 10.3088 3.84359 10.3983C3.90508 10.4296 4.00515 10.462 4.23073 10.4804C4.46409 10.4995 4.76828 10.5 5.22732 10.5H12.6673V7.39333C12.6673 6.93429 12.6668 6.6301 12.6477 6.39674C12.6293 6.17117 12.5969 6.07109 12.5656 6.00961C12.4761 5.83399 12.3333 5.69121 12.1577 5.60173C12.0962 5.5704 11.9961 5.53801 11.7706 5.51958C11.5372 5.50052 11.233 5.5 10.774 5.5H3.33399ZM14.0673 14.1667C14.0673 14.5717 13.739 14.9 13.334 14.9C12.929 14.9 12.6006 14.5717 12.6006 14.1667C12.6006 13.7617 12.929 13.4333 13.334 13.4333C13.739 13.4333 14.0673 13.7617 14.0673 14.1667Z" fill="black"/>
</svg>
