<svg width="16" height="16" viewBox="0 0 16 16" fill="none" xmlns="http://www.w3.org/2000/svg">
<path d="M9.99935 4.66667V4C9.99935 2.89543 9.10392 2 7.99935 2H2.66602C1.56145 2 0.666016 2.89543 0.666016 4V9.33333C0.666016 10.4379 1.56145 11.3333 2.66602 11.3333H3.33268V12C3.33268 13.1046 4.22811 14 5.33268 14H10.666C11.7706 14 12.666 13.1046 12.666 12V10.93L15.0602 13.0243C15.4584 13.2967 15.999 13.0116 15.999 12.5291V6.13749C15.999 5.65499 15.4584 5.36984 15.0602 5.6423L12.666 7.73659V6.66667C12.666 5.5621 11.7706 4.66667 10.666 4.66667H9.99935ZM7.99935 3.33333C8.36754 3.33333 8.66602 3.63181 8.66602 4V4.66667H5.33268C4.22811 4.66667 3.33268 5.5621 3.33268 6.66667V10H2.66602C2.29783 10 1.99935 9.70152 1.99935 9.33333V4C1.99935 3.63181 2.29783 3.33333 2.66602 3.33333H7.99935ZM4.66602 6.66667C4.66602 6.29848 4.96449 6 5.33268 6H10.666C11.0342 6 11.3327 6.29848 11.3327 6.66667V12C11.3327 12.3682 11.0342 12.6667 10.666 12.6667H5.33268C4.96449 12.6667 4.66602 12.3682 4.66602 12V6.66667ZM14.6657 11.1388L12.6936 9.33329L14.6657 7.5278V11.1388Z" fill="black"/>
</svg>
